<svg width="100%" height="100%" viewBox="0 0 4050 2370" fill="none" xmlns="http://www.w3.org/2000/svg" preserveAspectRatio="none">
  <defs>
    <filter id="dropShadow" x="-10%" y="-10%" width="120%" height="140%" color-interpolation-filters="sRGB">
      <feDropShadow dx="0" dy="60" stdDeviation="60" flood-color="#120702" flood-opacity="1" />
    </filter>
  </defs>
  <g filter="url(#dropShadow)">
    <path d="M1349.45 2.48389C1313.03 9.72876 1269.65 30.2886 1255.72 46.9324C1237.67 68.8628 1246.22 87.4648 1300.68 143.858C1349.45 194.572 1368.44 223.747 1372.88 253.902C1377.31 284.84 1370.98 307.749 1341.53 367.862C1322.85 406.632 1318.1 423.667 1320.63 447.164C1323.8 474.578 1330.76 501.991 1342.16 529.404C1355.15 561.321 1355.14 578.16 1342.8 590.496C1337.73 595.391 1328.23 602.244 1321.58 605.573C1310.18 611.056 1307.33 611.643 1286.75 611.643C1267.12 611.643 1261.42 610.664 1244.32 604.986C1201.89 590.888 1151.55 558.579 1106.91 516.872C1064.16 476.927 1052.44 448.731 1018.57 305.203C988.802 178.711 985.002 169.9 950.172 139.55C910.91 105.283 855.5 89.4229 805.788 98.4299C783.624 102.346 756.71 114.682 739.296 128.976C724.73 141.116 703.2 167.942 696.55 182.823C689.901 197.117 686.735 249.986 689.584 289.539C692.751 329.679 699.083 347.89 724.73 387.639C770.009 458.717 835.868 504.928 943.207 540.956C1030.28 570.132 1122.1 635.728 1164.22 698.778C1188.6 735.198 1188.91 757.912 1165.48 774.947C1146.17 788.85 1087.91 803.927 1062.89 801.381C1041.68 799.227 989.118 788.458 958.722 780.234C929.908 772.402 905.211 763.982 828.586 736.177C776.975 717.575 757.344 713.464 719.348 713.464C699.083 713.464 683.568 714.442 676.602 716.205C635.124 726.974 616.442 747.142 622.775 774.751C626.258 790.808 636.39 802.752 658.554 817.633C684.202 834.473 700.666 838.976 743.095 840.739C783.941 842.109 927.058 850.921 954.922 853.662C988.168 856.795 1018.56 869.327 1031.55 884.991C1043.9 900.068 1035.03 919.258 1010.97 930.223C983.736 942.755 915.976 958.811 797.556 980.546C665.837 1005.02 610.11 1010.7 439.128 1017.94C292.528 1024.21 229.201 1029.5 189.939 1038.5C96.849 1060.24 22.4405 1103.32 6.29229 1145.02C-0.356988 1162.65 -2.25678 1210.03 3.12596 1228.44C16.7411 1273.87 71.2019 1325.17 124.396 1342.59C156.376 1352.97 180.123 1355.52 241.233 1355.52C291.261 1355.52 296.961 1355.13 320.708 1350.23C334.64 1347.29 355.221 1341.42 366.62 1336.92C412.215 1318.71 435.962 1302.85 517.336 1235.29C609.476 1158.93 658.554 1130.14 703.199 1126.42C770.009 1120.74 800.089 1178.31 758.927 1233.14C723.781 1279.54 670.903 1303.63 517.336 1343.18C407.782 1371.38 349.838 1392.53 306.776 1420.13C281.762 1436 277.646 1442.07 277.646 1463.02C277.646 1480.64 286.828 1496.89 306.776 1514.91C366.62 1568.17 432.796 1570.52 517.653 1522.54C573.38 1490.63 666.154 1419.94 725.68 1363.55C763.043 1328.11 795.656 1313.22 835.235 1313.42C867.215 1313.42 889.379 1319.69 912.81 1335.55C940.04 1353.76 958.405 1380.39 958.405 1401.34C958.405 1408.58 953.339 1430.71 947.323 1450.49C933.074 1496.7 932.758 1505.9 946.69 1518.43C961.255 1531.94 983.419 1541.54 1014.45 1547.8C1037.25 1552.31 1044.21 1552.89 1067.01 1552.11C1093.92 1550.93 1117.99 1546.04 1130.34 1539.19C1137.3 1535.27 1151.87 1517.84 1157.88 1506.49C1179.1 1465.17 1228.81 1446.76 1263.95 1467.13C1272.5 1472.02 1275.04 1475.16 1275.04 1480.25C1275.04 1492.58 1203.48 1649.82 1163.58 1724.81C1093.92 1856.2 1038.2 1927.28 852.65 2122.89C781.091 2198.28 769.059 2217.66 766.209 2261.33C763.676 2299.12 773.492 2327.12 796.606 2349.83C803.572 2356.49 810.538 2360.21 824.47 2364.32C840.934 2369.41 846.001 2370 872.914 2370C909.644 2369.8 934.341 2366.08 972.653 2354.34C1024.26 2338.67 1059.73 2316.94 1086.32 2284.82C1115.45 2249.58 1126.22 2219.82 1156.3 2089.02C1187.65 1952.15 1202.21 1900.45 1227.86 1832.12C1291.82 1660.39 1383.01 1530.96 1439.69 1530.96C1462.8 1530.96 1500.8 1552.7 1519.48 1576.39C1534.99 1595.77 1539.11 1609.68 1539.11 1640.61C1538.79 1675.47 1531.19 1700.53 1503.33 1755.16C1471.67 1817.43 1464.7 1837.79 1464.7 1867.16C1464.7 1906.13 1487.81 1937.26 1524.86 1948.82C1547.34 1955.87 1570.14 1958.02 1623.33 1958.02C1713.26 1958.02 1759.8 1945.68 1772.47 1918.66C1778.48 1906.72 1778.48 1834.66 1772.78 1815.86C1767.08 1797.65 1746.5 1767.69 1713.57 1730.88C1672.73 1685.06 1672.41 1684.28 1672.73 1649.43C1673.04 1623.97 1673.99 1617.9 1680.96 1604C1701.86 1561.7 1750.3 1535.27 1804.45 1537.23C1824.71 1537.82 1826.61 1538.4 1839.91 1546.43C1865.56 1561.9 1912.1 1623.97 1947.88 1690.55C1998.54 1784.34 2025.77 1873.63 2039.7 1991.11C2050.79 2085.69 2058.38 2118.97 2076.12 2152.07C2098.6 2193.38 2142.93 2235.87 2174.59 2245.86C2192.64 2251.54 2216.07 2250.75 2239.5 2243.9C2288.89 2229.41 2308.84 2205.33 2307.89 2160.49C2307.26 2124.65 2296.81 2105.46 2226.52 2014.61C2155.27 1922.58 2141.34 1902.02 2102.71 1832.51C2048.57 1735.58 2034 1697.99 2033.69 1653.34C2033.37 1627.89 2034.32 1621.43 2041.29 1605.57C2056.48 1569.93 2076.75 1553.28 2110.95 1548.78C2136.59 1545.26 2152.42 1546.04 2170.47 1551.72C2196.75 1559.75 2210.05 1573.65 2232.85 1617.12C2270.53 1688.2 2308.52 1734.41 2354.12 1764.37C2377.23 1779.44 2394.96 1785.51 2415.55 1785.51C2442.14 1785.51 2484.25 1773.76 2504.2 1760.65C2518.45 1751.05 2520.67 1743.02 2517.5 1709.15C2515.92 1692.5 2514.65 1664.7 2514.65 1647.47C2514.65 1617.12 2514.97 1615.75 2523.2 1605.96C2553.6 1570.12 2661.25 1560.92 2741.99 1587.16C2782.21 1600.28 2825.27 1629.06 2845.22 1656.67C2867.7 1687.22 2881.94 1735.39 2896.19 1827.61C2899.68 1850.13 2904.11 1873.04 2906.01 1878.52C2917.72 1911.03 2968.39 1932.37 3034.24 1932.37C3061.16 1932.37 3090.92 1927.28 3121.64 1917.29C3176.41 1899.67 3191.29 1881.26 3184.33 1839.36C3173.25 1773.18 3139.37 1731.86 2995.3 1607.72C2936.72 1557.2 2925.01 1545.45 2911.71 1524.11C2893.66 1495.52 2896.51 1460.86 2918.99 1434.23C2932.92 1418.18 2977.25 1390.57 3001.31 1383.32C3016.51 1378.62 3023.16 1377.84 3044.38 1378.04C3086.49 1378.23 3147.6 1389.59 3214.41 1409.56C3302.75 1436 3348.34 1461.84 3383.49 1505.12C3400.9 1526.65 3412.3 1547.8 3431.3 1595.77C3462.01 1672.14 3487.03 1710.52 3536.74 1757.12C3560.8 1779.64 3612.73 1811.56 3638.7 1819.98C3670.36 1830.35 3688.72 1833.09 3716.59 1832.12C3748.88 1830.94 3774.21 1823.3 3798.91 1807.64C3834.06 1785.32 3850.21 1764.56 3858.75 1730.69C3864.45 1708.17 3866.67 1612.42 3862.24 1581.68C3857.8 1551.72 3853.69 1538.6 3837.86 1508.44C3813.16 1461.25 3780.55 1427.18 3729.25 1395.66C3678.91 1364.33 3613.36 1339.07 3556.37 1328.89C3534.21 1324.97 3524.07 1324.38 3475.63 1324.38C3426.23 1324.38 3415.47 1324.97 3375.89 1330.26C3337.58 1335.15 3324.91 1335.94 3284.07 1335.94C3241.64 1335.94 3233.41 1335.35 3208.08 1330.45C3160.9 1321.64 3106.44 1304.02 3080.16 1288.94C3049.13 1271.12 3033.93 1252.72 3034.24 1232.55C3034.24 1206.9 3056.73 1187.32 3120.05 1157.36C3161.53 1137.98 3183.69 1124.27 3193.51 1112.52C3209.34 1093.14 3208.08 1060.24 3190.66 1038.11C3179.26 1023.62 3158.68 1011.68 3107.39 988.965C3065.27 970.364 3047.23 959.007 3036.46 943.929C3029.81 934.335 3028.86 930.615 3029.81 916.125C3032.34 876.767 3064.01 857.187 3192.88 815.871C3382.22 755.17 3524.39 730.107 3681.12 730.107C3735.58 730.107 3780.86 732.653 3858.75 740.093C3932.21 747.142 3966.73 748.121 3981.29 743.226C4001.87 736.373 4022.77 715.813 4039.55 684.875C4049.05 668.036 4050 664.511 4050 641.993C4050 622.413 4048.42 615.364 4043.35 606.356C4023.4 571.111 3978.76 546.831 3917.33 537.432C3806.51 520.397 3631.73 535.082 3513.31 571.502C3438.9 594.412 3330.04 643.772 3171.73 721.704C3144.13 693.484 3284.22 649.008 3296.22 635.508C3530.21 559.339 3318.62 519.289 3286.13 585.984C3242.11 560.333 3436.63 531.984 3392.63 478.494C3290.13 415.984 3152.63 576.825 3092.13 609.484C3095.45 563.984 3085.55 470.484 3092.13 572.484C3082.41 421.71 3080.79 554.076 3085.86 538.607C3091.87 520.788 3089.97 503.166 3079.84 478.494C3064.64 441.094 3055.46 432.87 3020.63 424.451C2994.03 418.185 2966.49 418.576 2943.05 425.43C2913.92 434.045 2891.44 445.598 2832.55 482.802C2802.15 501.991 2768.59 522.355 2757.82 527.837C2732.49 540.761 2702.41 549.964 2680.25 551.334C2616.61 555.446 2532.38 516.48 2514.33 475.165C2508 460.283 2508.95 431.5 2516.23 409.178C2525.1 381.765 2543.47 347.89 2586.21 278.378C2636.55 196.726 2638.14 193.005 2637.82 161.284C2637.82 139.354 2636.87 134.263 2630.22 124.081C2609.96 91.3811 2571.96 71.0168 2513.07 61.2263C2484.89 56.5269 2412.06 56.3311 2383.88 61.0305C2312.32 72.9749 2274.96 101.172 2233.48 175.187C2215.75 206.712 2209.1 225.901 2209.1 245.482C2209.1 266.238 2216.38 283.665 2239.5 319.302C2250.58 336.141 2262.61 357.288 2266.41 366.1C2272.43 380.394 2272.74 383.527 2269.26 392.926C2256.28 428.563 2176.81 464.004 2109.36 463.808C2084.67 463.612 2072 459.892 2036.54 442.269C2021.02 434.437 2002.34 426.409 1995.38 424.451C1978.91 419.947 1931.1 416.031 1907.98 417.401C1861.12 419.947 1818.38 442.465 1761.07 494.158C1710.72 539.586 1705.34 542.327 1661.33 543.698C1611.3 545.264 1574.89 536.061 1560.64 518.243C1554.94 510.998 1552.41 503.557 1549.87 482.997C1542.27 421.905 1525.18 377.848 1494.78 341.428C1484.01 328.505 1466.6 307.553 1455.83 294.63C1437.79 272.895 1433.67 266.238 1426.07 247.44C1424.49 243.132 1422.27 189.873 1421 128.976C1418.79 6.59619 1419.42 9.53296 1398.52 3.26709C1385.54 -0.844971 1367.49 -1.04077 1349.45 2.48389Z" fill="#3B231D"/>
  </g>
</svg>
